<svg viewBox="0 0 32 30" xmlns="http://www.w3.org/2000/svg">
<path d="M24.5256 28.4382L24.5251 28.4379L17.2746 24.1362C16.4895 23.6704 15.513 23.6695 14.7271 24.134L7.47711 28.4182L7.47444 28.4198C7.38249 28.4744 7.30836 28.4848 7.24894 28.481C7.18194 28.4767 7.10962 28.4519 7.04524 28.406C6.98073 28.36 6.94071 28.3046 6.92105 28.2564C6.90466 28.2162 6.89332 28.1612 6.91364 28.0751C6.91367 28.075 6.91371 28.0748 6.91374 28.0747L8.82874 20.0141C9.04603 19.0995 8.73185 18.1403 8.01554 17.5314L1.62021 12.0955L1.61968 12.095C1.54345 12.0303 1.5188 11.9742 1.50839 11.9336C1.49593 11.8851 1.49596 11.8228 1.51813 11.7562C1.54031 11.6895 1.57928 11.6349 1.62472 11.5979C1.66425 11.5657 1.7255 11.5322 1.83124 11.524L1.83124 11.524L1.83902 11.5234L10.2735 10.821C11.1921 10.7445 11.994 10.1688 12.3602 9.32297L15.6563 1.71027L15.6563 1.71027L15.6588 1.70438C15.6919 1.62701 15.7345 1.58535 15.7806 1.55709C15.8341 1.52427 15.9105 1.5 16 1.5C16.0895 1.5 16.1659 1.52427 16.2194 1.55709C16.2655 1.58535 16.3081 1.62701 16.3412 1.70439L16.3432 1.70914L19.6395 9.33948C20.0053 10.1863 20.8078 10.7629 21.7271 10.8394L30.161 11.5417L30.161 11.5417L30.1688 11.5423C30.2745 11.5506 30.3358 11.584 30.3753 11.6162C30.4207 11.6532 30.4597 11.7078 30.4819 11.7745C30.504 11.8411 30.5041 11.9034 30.4916 11.952C30.4812 11.9926 30.4565 12.0487 30.3803 12.1134L30.3798 12.1138L23.9845 17.5497C23.2682 18.1586 22.954 19.1178 23.1713 20.0325L25.0863 28.093C25.1067 28.1794 25.0954 28.2344 25.079 28.2747C25.0593 28.323 25.0193 28.3783 24.9548 28.4243C24.8904 28.4703 24.8181 28.495 24.7511 28.4993C24.6916 28.5031 24.6175 28.4928 24.5256 28.4382Z" stroke-width="3"/>
</svg>
