<svg viewBox="0 0 18 18" xmlns="http://www.w3.org/2000/svg">
<path fill-rule="evenodd" clip-rule="evenodd" d="M5.62004e-08 16.7143V1.28571C5.62004e-08 0.575634 0.575634 0 1.28571 0H16.7143C17.4244 0 18 0.575634 18 1.28571V16.7143C18 17.4244 17.4244 18 16.7143 18H1.28571C0.575634 18 5.62004e-08 17.4244 5.62004e-08 16.7143ZM10.2857 3.07143C10.2857 2.79529 10.5096 2.57143 10.7857 2.57143H14.9286C15.2047 2.57143 15.4286 2.79529 15.4286 3.07143V7.21429C15.4286 7.49043 15.2047 7.71429 14.9286 7.71429H10.7857C10.5096 7.71429 10.2857 7.49043 10.2857 7.21428V3.07143ZM10.2857 10.7857C10.2857 10.5096 10.5096 10.2857 10.7857 10.2857H14.9286C15.2047 10.2857 15.4286 10.5096 15.4286 10.7857V14.9286C15.4286 15.2047 15.2047 15.4286 14.9286 15.4286H10.7857C10.5096 15.4286 10.2857 15.2047 10.2857 14.9286V10.7857ZM7.71429 3.07143C7.71429 2.79529 7.49043 2.57143 7.21429 2.57143H3.07143C2.79529 2.57143 2.57143 2.79529 2.57143 3.07143V7.21428C2.57143 7.49043 2.79529 7.71428 3.07143 7.71428L7.21428 7.71429C7.49043 7.71429 7.71429 7.49043 7.71429 7.21429V3.07143ZM7.71429 14.9286C7.71429 15.2047 7.49043 15.4286 7.21428 15.4286L3.07143 15.4286C2.79529 15.4286 2.57143 15.2047 2.57143 14.9286V10.7857C2.57143 10.5096 2.79529 10.2857 3.07143 10.2857L7.21429 10.2857C7.49043 10.2857 7.71429 10.5096 7.71429 10.7857V14.9286Z" />
</svg>
