<svg viewBox="0 0 21 21" xmlns="http://www.w3.org/2000/svg">
<path d="M2.25 3C2.25 2.33696 2.51339 1.70107 2.98223 1.23223C3.45107 0.763392 4.08696 0.5 4.75 0.5H16.25C16.5783 0.5 16.9034 0.564664 17.2067 0.690301C17.51 0.815938 17.7856 1.00009 18.0178 1.23223C18.2499 1.46438 18.4341 1.73998 18.5597 2.04329C18.6853 2.34661 18.75 2.6717 18.75 3V17.25C18.75 17.4489 18.671 17.6397 18.5303 17.7803C18.3897 17.921 18.1989 18 18 18H4.53538C4.10163 18 3.73618 18.4004 4.04289 18.7071V18.7071C4.23043 18.8946 4.48478 19 4.75 19H18C18.1989 19 18.3897 19.079 18.5303 19.2197C18.671 19.3603 18.75 19.5511 18.75 19.75C18.75 19.9489 18.671 20.1397 18.5303 20.2803C18.3897 20.421 18.1989 20.5 18 20.5H4.75C4.08696 20.5 3.45107 20.2366 2.98223 19.7678C2.51339 19.2989 2.25 18.663 2.25 18V3ZM10.5 6.5C10.7652 6.5 11.0196 6.39464 11.2071 6.20711C11.3946 6.01957 11.5 5.76522 11.5 5.5C11.5 5.23478 11.3946 4.98043 11.2071 4.79289C11.0196 4.60536 10.7652 4.5 10.5 4.5C10.2348 4.5 9.98043 4.60536 9.79289 4.79289C9.60536 4.98043 9.5 5.23478 9.5 5.5C9.5 5.76522 9.60536 6.01957 9.79289 6.20711C9.98043 6.39464 10.2348 6.5 10.5 6.5ZM9.75 8.25V13.25C9.75 13.4489 9.82902 13.6397 9.96967 13.7803C10.1103 13.921 10.3011 14 10.5 14C10.6989 14 10.8897 13.921 11.0303 13.7803C11.171 13.6397 11.25 13.4489 11.25 13.25V8.25C11.25 8.05109 11.171 7.86032 11.0303 7.71967C10.8897 7.57902 10.6989 7.5 10.5 7.5C10.3011 7.5 10.1103 7.57902 9.96967 7.71967C9.82902 7.86032 9.75 8.05109 9.75 8.25Z" />
</svg>
