<svg viewBox="0 0 21 21" xmlns="http://www.w3.org/2000/svg">
<path d="M3.5 16.5C3.5 17.0523 3.94772 17.5 4.5 17.5H11.5C12.0523 17.5 12.5 17.0523 12.5 16.5V13.5C12.5 13.2167 12.596 12.979 12.788 12.787C12.98 12.595 13.2173 12.4993 13.5 12.5H16.5C17.0523 12.5 17.5 12.0523 17.5 11.5V4.5C17.5 3.94772 17.0523 3.5 16.5 3.5H4.5C3.94772 3.5 3.5 3.94772 3.5 4.5V16.5ZM3.5 19.5C2.95 19.5 2.479 19.304 2.087 18.912C1.695 18.52 1.49934 18.0493 1.5 17.5V3.5C1.5 2.95 1.696 2.479 2.088 2.087C2.48 1.695 2.95067 1.49934 3.5 1.5H17.5C18.05 1.5 18.521 1.696 18.913 2.088C19.305 2.48 19.5007 2.95067 19.5 3.5V13.0858C19.5 13.351 19.3946 13.6054 19.2071 13.7929L13.7929 19.2071C13.6054 19.3946 13.351 19.5 13.0858 19.5H3.5ZM6.5 12.5C6.21667 12.5 5.979 12.404 5.787 12.212C5.595 12.02 5.49934 11.7827 5.5 11.5C5.5 11.2167 5.596 10.979 5.788 10.787C5.98 10.595 6.21734 10.4993 6.5 10.5H9.5C9.78334 10.5 10.021 10.596 10.213 10.788C10.405 10.98 10.5007 11.2173 10.5 11.5C10.5 11.7833 10.404 12.021 10.212 12.213C10.02 12.405 9.78267 12.5007 9.5 12.5H6.5ZM6.5 8.5C6.21667 8.5 5.979 8.404 5.787 8.212C5.595 8.02 5.49934 7.78267 5.5 7.5C5.5 7.21667 5.596 6.979 5.788 6.787C5.98 6.595 6.21734 6.49934 6.5 6.5H14.5C14.7833 6.5 15.021 6.596 15.213 6.788C15.405 6.98 15.5007 7.21734 15.5 7.5C15.5 7.78334 15.404 8.021 15.212 8.213C15.02 8.405 14.7827 8.50067 14.5 8.5H6.5Z" />
</svg>
