<svg viewBox="0 0 21 21" xmlns="http://www.w3.org/2000/svg">
<path d="M8.32369 18.4647V14.0299C8.32369 13.4776 8.77141 13.0299 9.32369 13.0299H11.6715C12.2238 13.0299 12.6715 13.4776 12.6715 14.0299V18.4647C12.6715 19.0625 13.1606 19.5516 13.7584 19.5516H17.0193C17.6171 19.5516 18.1062 19.0625 18.1062 18.4647V11.856C18.1062 11.3037 18.5539 10.856 19.1062 10.856H19.954C20.454 10.856 20.6932 10.2365 20.3127 9.91037L11.2258 1.72566C10.8128 1.3561 10.1824 1.3561 9.76933 1.72566L0.682446 9.91037C0.312884 10.2365 0.541143 10.856 1.04114 10.856H1.88895C2.44124 10.856 2.88895 11.3037 2.88895 11.856V18.4647C2.88895 19.0625 3.37808 19.5516 3.9759 19.5516H7.23674C7.83456 19.5516 8.32369 19.0625 8.32369 18.4647Z" />
</svg>
