<svg width="298" height="327" viewBox="0 0 298 327" xmlns="http://www.w3.org/2000/svg">
<path d="M2.00091 42.3997C2.00091 65.8663 1.60091 93.0663 1.06758 103.066L0.267578 121.333H54.4009H108.668V95.9997V70.6663H77.3342H46.0009V35.333V-0.000331849H24.0009H2.00091V42.3997Z" />
<path d="M188.668 60.6663V121.333H208.001H227.335V109.333V97.333H239.335H251.335V109.333V121.333H274.001H296.668V60.6663V-0.000331849H285.335H274.001V13.333V26.6663H263.335H252.668V13.333V-0.000331849H240.001H227.335V13.333V26.6663H218.001H208.668V13.333V-0.000331849H198.668H188.668V60.6663Z" />
<path d="M0.667969 157.6C0.801302 193.2 9.06797 225.333 23.6013 246.4C33.468 260.533 50.8013 276.4 68.8013 287.467C82.8013 296.133 122.135 315.867 134.668 320.533C137.601 321.6 142.801 323.467 146.135 324.8C152.001 327.067 152.535 327.067 157.068 324.8C159.735 323.6 164.401 321.733 167.335 320.667C183.201 315.067 234.801 288.267 238.001 284C238.401 283.6 241.335 281.333 244.668 279.067C252.001 274.133 268.001 257.6 273.601 249.333C287.601 228.4 294.401 203.867 296.135 167.467L297.068 148H262.268H227.335V170.667V193.333H207.335H187.335V225.333V257.333H152.001H116.668V225.333V193.333H92.0013H67.3346V170.667V148H34.0013H0.667969V157.6Z" />
</svg>
