<svg viewBox="0 0 22 22" xmlns="http://www.w3.org/2000/svg">
<path d="M19.0004 17.7527C20.027 16.5186 20.7409 15.0557 21.0819 13.4876C21.4229 11.9195 21.3809 10.2924 20.9595 8.74397C20.538 7.19553 19.7495 5.77129 18.6607 4.59174C17.5718 3.41218 16.2146 2.51201 14.704 1.96738C13.1933 1.42274 11.5736 1.24966 9.98182 1.46278C8.39005 1.6759 6.87307 2.26895 5.5592 3.19176C4.24533 4.11457 3.17323 5.33999 2.43359 6.76436C1.69395 8.18873 1.30853 9.77014 1.30994 11.3748C1.31048 13.7076 2.1332 15.9656 3.63374 17.7527L3.61945 17.7649C3.66948 17.8248 3.72667 17.8763 3.77813 17.9355C3.84246 18.0091 3.9118 18.0784 3.97827 18.1498C4.17842 18.3669 4.38428 18.5755 4.60015 18.7712C4.66591 18.8312 4.73381 18.8869 4.80029 18.944C5.02903 19.1411 5.26419 19.3283 5.50794 19.5025C5.53939 19.5239 5.56798 19.5518 5.59943 19.5739V19.5654C7.27356 20.7425 9.2707 21.3743 11.3178 21.3743C13.3649 21.3743 15.362 20.7425 17.0362 19.5654V19.5739C17.0676 19.5518 17.0955 19.5239 17.1277 19.5025C17.3707 19.3275 17.6066 19.1411 17.8353 18.944C17.9018 18.8869 17.9697 18.8305 18.0355 18.7712C18.2513 18.5748 18.4572 18.3669 18.6573 18.1498C18.7238 18.0784 18.7924 18.0091 18.8575 17.9355C18.9082 17.8763 18.9661 17.8248 19.0162 17.7641L19.0004 17.7527ZM11.3171 5.66114C11.9533 5.66114 12.5752 5.84963 13.1041 6.20279C13.6331 6.55594 14.0454 7.05789 14.2888 7.64516C14.5323 8.23243 14.596 8.87865 14.4719 9.50209C14.3478 10.1255 14.0414 10.6982 13.5916 11.1477C13.1417 11.5972 12.5686 11.9033 11.9446 12.0273C11.3207 12.1513 10.6739 12.0876 10.0862 11.8444C9.4984 11.6011 8.99604 11.1892 8.6426 10.6607C8.28915 10.1321 8.1005 9.51074 8.1005 8.87508C8.1005 8.02269 8.43939 7.20521 9.04262 6.60248C9.64585 5.99975 10.464 5.66114 11.3171 5.66114ZM5.94842 18.0469C5.72446 17.8658 5.59817 17.5863 5.63845 17.3012C5.74721 16.5311 6.10573 15.813 6.66545 15.2608C7.33336 14.6018 8.23407 14.2321 9.1727 14.2317H13.4615C14.4001 14.2321 15.3008 14.6018 15.9687 15.2608C16.5284 15.813 16.887 16.5311 16.9957 17.3012C17.036 17.5863 16.9097 17.8658 16.6858 18.0469C15.1702 19.2724 13.2759 19.9454 11.3171 19.9454C9.35831 19.9454 7.46401 19.2724 5.94842 18.0469Z" />
</svg>
